<svg id="Capa_1" data-name="Capa 1" xmlns="http://www.w3.org/2000/svg" viewBox="0 0 393.67 94.62"><defs><style>.cls-1{fill:#212322;}.cls-2{fill:#db6015;}</style></defs><path class="cls-1" d="M393.67,19.05c0-2.42-.8-3.22-3.22-3.22h-.88c-2.42,0-3.23.8-3.23,3.22V39.39c0,5.44.81,22.4.81,22.62l-1.25-4.33c-.81-2.94-1.69-6.25-2.79-10s-1.91-6.68-2.57-8.81L374.29,19.2c-.8-2.57-2-3.37-4.7-3.37h-5.21c-2.71,0-3.59.88-3.59,3.58V61.64c0,2.42.81,3.22,3.23,3.22h.88c2.42,0,3.22-.8,3.22-3.22v-21c0-2.06-.07-6.17-.29-10s-.37-7.71-.44-10.13l-.07-1.77,1.17,4.34,2.65,9.32c1,3.6,1.91,6.47,2.57,8.67l6.54,20.42c.8,2.56,1.83,3.36,4.7,3.36h5.13c2.71,0,3.59-.87,3.59-3.58ZM327.08,30c0-4.48,2.79-7.42,7.42-7.42S342,25.51,342,30V50.7c0,4.48-2.8,7.42-7.43,7.42s-7.49-2.94-7.49-7.42ZM319.45,50.7a14.07,14.07,0,0,0,4.19,10.57,15.42,15.42,0,0,0,10.93,4,15.16,15.16,0,0,0,10.87-4,14.08,14.08,0,0,0,4.18-10.57V30a13.62,13.62,0,0,0-4.25-10.5c-2.79-2.71-6.39-4-10.87-4s-8.08,1.32-10.87,4A13.85,13.85,0,0,0,319.46,30Zm-17.77-.08c0,5.07-2.49,7.57-7.56,7.57-4.7,0-7.49-2.79-7.49-7.57V30.14c0-4.77,2.79-7.56,7.49-7.56,4.48,0,7.05,2.56,7.27,6.75,0,2.06.88,2.87,3.3,2.87h1c2.35,0,3.15-1,3.15-3.46a12.76,12.76,0,0,0-4.1-9.54c-2.64-2.49-6.17-3.74-10.65-3.74a15.11,15.11,0,0,0-10.87,4c-2.86,2.64-4.25,6.24-4.25,10.87v20c0,9.47,6,14.9,15.12,14.9,4.48,0,8.15-1.32,10.87-4s4.18-6.24,4.18-10.79V41.3c0-2.42-.88-3.23-3.3-3.23H297.5c-2.42,0-3.23.74-3.23,3.16v.36c0,2.42.81,3.23,3.23,3.23h4.19Zm-78-18.28c0,4.78-2.49,7.2-7.49,7.2h-6.68V22.79h6.53c5.07,0,7.64,2.35,7.64,7.13Zm.37,12.41c4.62-2,7.26-6.31,7.26-12.48V30c0-8.88-5.5-14.16-15.12-14.16H205.57c-2.71,0-3.59.88-3.59,3.59V61.56c0,2.42.81,3.3,3.23,3.3h1.17c2.42,0,3.16-.73,3.16-3.3V46.51h7.12l6.76,15.12c1.1,2.57,2.05,3.23,4.69,3.23H230c2.42,0,3.08-1,2-3.15ZM137.22,31.39c2.27,0,3.08-.81,3.08-2.8a12.09,12.09,0,0,0-4.11-9.46q-4.06-3.75-10.79-3.74A15.2,15.2,0,0,0,115,19.05a12.13,12.13,0,0,0-4.1,9.47c-.15,9,8.06,12.71,14.31,15.28,4.41,1.83,7.86,4.48,7.86,8.07,0,4-2.87,6.39-7.35,6.39-5,0-7.93-2.93-8.15-6.83-.22-2-1-2.71-3.37-2.71H113c-2.12,0-3.15.88-3.15,2.64a12.63,12.63,0,0,0,4.47,10.06,16.84,16.84,0,0,0,11.38,3.81c4.63,0,8.23-1.25,10.94-3.74a12.77,12.77,0,0,0,4.11-9.83c.07-8.82-8-12.64-14.31-15.28-4.34-2-7.79-4.55-7.79-8.08,0-3.74,2.5-5.95,6.69-5.95,4.4,0,7.12,2.5,7.34,6.39.22,2.06,1.1,2.65,3.45,2.65ZM105.79,61.05c0-2.42-.81-3.23-3.23-3.23H88.39v-14H101c2.42,0,3.16-.74,3.16-3.3V40c0-2.42-.74-3.23-3.16-3.23H88.39V22.87h14.17c2.42,0,3.23-.81,3.23-3.23v-.59c0-2.42-.81-3.22-3.23-3.22H84.43c-2.71,0-3.59.88-3.59,3.59V61.27c0,2.71.88,3.59,3.59,3.59h18.13c2.42,0,3.23-.8,3.23-3.22ZM63.07,32.34c0,4.78-2.5,7.2-7.5,7.2H48.89V22.79h6.54c5.07,0,7.64,2.35,7.64,7.13Zm.37,12.41c4.62-2,7.26-6.31,7.26-12.48V30c0-8.88-5.5-14.16-15.13-14.16H44.93c-2.71,0-3.59.88-3.59,3.59V61.56c0,2.42.8,3.3,3.22,3.3h1.18c2.42,0,3.15-.73,3.15-3.3V46.51H56l6.76,15.12c1.09,2.57,2,3.23,4.69,3.23h1.9c2.43,0,3.09-1,2.06-3.15ZM22.68,50.62c0,5.07-2.49,7.57-7.56,7.57-4.7,0-7.49-2.79-7.49-7.57V30.14c0-4.77,2.79-7.56,7.49-7.56,4.48,0,7.05,2.56,7.27,6.75,0,2.06.88,2.87,3.3,2.87h1c2.35,0,3.15-1,3.15-3.46a12.76,12.76,0,0,0-4.1-9.54c-2.64-2.49-6.17-3.74-10.65-3.74a15.11,15.11,0,0,0-10.87,4C1.39,22.13,0,25.73,0,30.36v20c0,9.47,6,14.9,15.12,14.9,4.48,0,8.15-1.32,10.87-4S30.17,55,30.17,50.48V41.3c0-2.42-.88-3.23-3.3-3.23H18.5c-2.42,0-3.23.74-3.23,3.16v.36c0,2.42.81,3.23,3.23,3.23h4.19Z"/><path class="cls-1" d="M177.16,19.41,186,61.63c.51,2.57,1.39,3.23,4,3.23h1.32c2.43,0,3.16-.88,2.57-3.23l-9.54-42.29c-.66-2.71-1.69-3.51-4.4-3.51h-5.36c-2.72,0-3.75.8-4.41,3.51l-9.54,42.29c-.59,2.35.22,3.23,2.64,3.23h1.25c2.57,0,3.45-.66,4-3.23L177,19.41"/><path class="cls-1" d="M256.67,19.41l8.81,42.22c.52,2.57,1.4,3.23,4,3.23h1.32c2.42,0,3.16-.88,2.57-3.23l-9.55-42.29c-.65-2.71-1.68-3.51-4.4-3.51H254c-2.71,0-3.74.8-4.4,3.51l-9.54,42.29c-.59,2.35.22,3.23,2.64,3.23H244c2.57,0,3.45-.66,4-3.23l8.53-42.22"/><path class="cls-2" d="M323.27,8.9a3.08,3.08,0,0,1-3.14-3.14V3.14A3.08,3.08,0,0,1,323.27,0h22.64a3.08,3.08,0,0,1,3.14,3.14V5.76a3.08,3.08,0,0,1-3.14,3.14Z"/><path class="cls-2" d="M392.25,90.77c0,1.68-.87,2.56-2.39,2.56a2.29,2.29,0,0,1-2.42-2.58V84.84a2.31,2.31,0,0,1,2.44-2.58,2.23,2.23,0,0,1,2.37,2.44c0,.48.16.62.66.62h0c.48,0,.62-.14.62-.64A3.49,3.49,0,0,0,389.88,81a3.66,3.66,0,0,0-2.71,1,3.88,3.88,0,0,0-1.06,2.88v5.8c0,2.49,1.49,3.92,3.75,3.92a3.55,3.55,0,0,0,2.67-1.05,3.86,3.86,0,0,0,1.05-2.86V88.06c0-.5-.15-.66-.65-.66h-2.08c-.47,0-.61.13-.61.62v0c0,.48.14.62.61.62h1.4Zm-12.7-9.07c0-.48-.14-.63-.62-.63h0c-.5,0-.64.15-.64.63V94.4L374.2,81.84a.88.88,0,0,0-1-.77h-1.06c-.62,0-.8.19-.8.81v12c0,.51.14.65.64.65h0c.48,0,.62-.14.62-.65V81.2l4.07,12.55c.22.63.4.77,1,.77h1c.62,0,.8-.18.8-.81Zm-15.16,0c0-.5-.14-.65-.63-.65h0c-.5,0-.66.15-.66.65V93.85c0,.51.16.67.66.67h0c.49,0,.63-.16.63-.67Zm-12.3,12c.1.62.34.78,1,.78H354c.61,0,.86-.16.95-.78l2.5-12c.09-.5,0-.69-.52-.69h0c-.53,0-.71.17-.81.67l-1.5,7.43-1,5.07-1-5.09L351,81.74c-.14-.54-.3-.67-.8-.67h0c-.5,0-.64.17-.54.67Zm-8.31-12c0-.5-.14-.65-.64-.65h0c-.5,0-.66.15-.66.65V93.85c0,.51.16.67.66.67h0c.5,0,.64-.16.64-.67Zm-6.92,12.14c0-.49-.14-.63-.62-.63h-3.85V81.72c0-.5-.14-.65-.64-.65h0c-.49,0-.63.15-.63.65v12c0,.63.18.81.79.81h4.37c.48,0,.62-.14.62-.62Zm-28.05-11.5H311a2.16,2.16,0,0,1,2.45,2.44v.52A2.15,2.15,0,0,1,311,87.76h-2.18Zm4,6.34a3.34,3.34,0,0,0,2-3.38V84.8A3.49,3.49,0,0,0,311,81.07H308.3c-.62,0-.8.19-.8.81v12c0,.51.14.67.64.67h.06c.48,0,.61-.16.61-.67V89c1.7,0,2.58,0,2.66,0l2.11,4.77c.26.59.38.73,1,.73h.12c.51,0,.65-.24.44-.71Zm-18-4a2.41,2.41,0,1,1,4.81,0v6.24a2.41,2.41,0,1,1-4.81,0Zm-1.34,6.24a3.62,3.62,0,0,0,1,2.68,3.67,3.67,0,0,0,2.71,1,3.53,3.53,0,0,0,3.73-3.71V84.67a3.56,3.56,0,0,0-1-2.65,4,4,0,0,0-5.43,0,3.6,3.6,0,0,0-1,2.65Zm-5.18-3c0-.49-.14-.62-.62-.62h-3.29V82.36h3.89c.48,0,.62-.14.62-.62v0c0-.48-.14-.63-.62-.63h-4.43c-.61,0-.79.19-.79.81v12c0,.51.12.67.65.67h0c.5,0,.64-.16.64-.67V88.56h3.29c.48,0,.62-.14.62-.62Zm-22-2.78c.48,0,.64-.14.64-.62a3.32,3.32,0,0,0-1.06-2.62,4.09,4.09,0,0,0-5.22,0,3.08,3.08,0,0,0-1,2.43c0,2.44,2.25,3.41,3.93,4.19,1.2.56,2.15,1.41,2.15,2.62,0,1.43-1,2.21-2.47,2.21a2.39,2.39,0,0,1-2.61-2.44c0-.46-.15-.6-.68-.6h0c-.5,0-.64.14-.64.63a3.38,3.38,0,0,0,1.14,2.69,4.16,4.16,0,0,0,2.85,1,4,4,0,0,0,2.75-1,3.27,3.27,0,0,0,1.06-2.53c0-4.15-6.09-3.75-6.09-6.82a2,2,0,0,1,2.26-2.1,2.18,2.18,0,0,1,2.35,2.3c0,.46.14.6.68.6ZM253.36,81.7c0-.48-.14-.63-.62-.63h0c-.5,0-.64.15-.64.63V94.4l-4-12.56c-.19-.58-.4-.77-1-.77h-1.06c-.62,0-.8.19-.8.81v12c0,.51.14.65.64.65h0c.48,0,.62-.14.62-.65V81.2l4.07,12.55c.22.63.4.77,1,.77h1c.62,0,.8-.18.8-.81Zm-20.94,3a2.41,2.41,0,1,1,4.81,0v6.24a2.41,2.41,0,1,1-4.81,0Zm-1.33,6.24a3.61,3.61,0,0,0,1,2.68,3.69,3.69,0,0,0,2.71,1,3.53,3.53,0,0,0,3.73-3.71V84.67a3.56,3.56,0,0,0-1-2.65,4,4,0,0,0-5.43,0,3.59,3.59,0,0,0-1,2.65Zm-6.63-9.19c0-.5-.13-.65-.63-.65h0c-.5,0-.66.15-.66.65V93.85c0,.51.16.67.66.67h0c.5,0,.63-.16.63-.67Zm-6.61,0c0-.48-.14-.63-.62-.63h-5.85c-.47,0-.61.15-.61.63v0c0,.48.14.62.61.62h2.26V93.85c0,.51.12.67.66.67h0c.49,0,.63-.16.63-.67V82.36h2.26c.48,0,.62-.14.62-.62Zm-18.31,0c0-.5-.14-.65-.64-.65h0c-.49,0-.65.15-.65.65v9.19a3.61,3.61,0,0,0,1,2.68,3.7,3.7,0,0,0,2.72,1,3.61,3.61,0,0,0,2.69-1,3.65,3.65,0,0,0,1-2.68V81.72c0-.5-.14-.65-.63-.65h0c-.5,0-.66.15-.66.65v9.19a2.41,2.41,0,1,1-4.81,0Zm-6,12.14c0-.49-.14-.63-.62-.63h-3.85V81.72c0-.5-.14-.65-.63-.65h0c-.5,0-.64.15-.64.65v12c0,.63.18.81.8.81h4.36c.48,0,.62-.14.62-.62ZM175,84.67a2.4,2.4,0,1,1,4.8,0v6.24a2.4,2.4,0,1,1-4.8,0Zm-1.34,6.24a3.62,3.62,0,0,0,1,2.68,3.66,3.66,0,0,0,2.71,1,3.55,3.55,0,0,0,3.73-3.71V84.67a3.53,3.53,0,0,0-1-2.65,4,4,0,0,0-5.42,0,3.6,3.6,0,0,0-1,2.65Zm-6.44-5.79c.48,0,.64-.14.64-.62a3.32,3.32,0,0,0-1.06-2.62,4.09,4.09,0,0,0-5.22,0,3.08,3.08,0,0,0-1,2.43c0,2.44,2.25,3.41,3.93,4.19,1.2.56,2.15,1.41,2.15,2.62,0,1.43-1,2.21-2.47,2.21a2.39,2.39,0,0,1-2.61-2.44c0-.46-.14-.6-.68-.6h0c-.5,0-.64.14-.64.63a3.38,3.38,0,0,0,1.14,2.69,4.16,4.16,0,0,0,2.85,1,4,4,0,0,0,2.75-1A3.27,3.27,0,0,0,168,91.14c0-4.15-6.09-3.75-6.09-6.82a2,2,0,0,1,2.26-2.1,2.18,2.18,0,0,1,2.35,2.3c0,.46.15.6.68.6Z"/></svg>